<mxfile host="Electron" agent="Mozilla/5.0 (Windows NT 10.0; Win64; x64) AppleWebKit/537.36 (KHTML, like Gecko) draw.io/25.0.2 Chrome/128.0.6613.186 Electron/32.2.5 Safari/537.36" version="25.0.2">
  <diagram name="Page-1" id="oQ9REoWw0RHow7sonaW1">
    <mxGraphModel dx="446" dy="288" grid="1" gridSize="10" guides="1" tooltips="1" connect="1" arrows="1" fold="1" page="1" pageScale="1" pageWidth="850" pageHeight="1100" math="0" shadow="0">
      <root>
        <mxCell id="0" />
        <mxCell id="1" parent="0" />
        <mxCell id="BOcxICgayFsjbDCBK3zj-1" value="&lt;div&gt;&lt;span style=&quot;font-size: 18px;&quot;&gt;To&amp;nbsp;&lt;/span&gt;&lt;span style=&quot;color: rgba(0, 0, 0, 0); font-family: monospace; font-size: 0px; text-align: start; text-wrap: nowrap; background-color: initial;&quot;&gt;%3CmxGraphModel%3E%3Croot%3E%3CmxCell%20id%3D%220%22%2F%3E%3CmxCell%20id%3D%221%22%20parent%3D%220%22%2F%3E%3CmxCell%20id%3D%222%22%20value%3D%22%26lt%3Bfont%20style%3D%26quot%3Bfont-size%3A%2016px%3B%26quot%3B%26gt%3BC%26lt%3B%2Ffont%26gt%3B%22%20style%3D%22rounded%3D0%3BwhiteSpace%3Dwrap%3Bhtml%3D1%3BfillColor%3Dnone%3B%22%20vertex%3D%221%22%20parent%3D%221%22%3E%3CmxGeometry%20x%3D%22330%22%20y%3D%22200%22%20width%3D%2290%22%20height%3D%2260%22%20as%3D%22geometry%22%2F%3E%3C%2FmxCell%3E%3C%2Froot%3E%3C%2FmxGraphModel%3E&lt;/span&gt;&lt;span style=&quot;font-size: 18px; background-color: initial;&quot;&gt;Correct&lt;/span&gt;&lt;/div&gt;" style="rounded=0;whiteSpace=wrap;html=1;fillColor=none;" vertex="1" parent="1">
          <mxGeometry x="275" y="80" width="240" height="60" as="geometry" />
        </mxCell>
        <mxCell id="BOcxICgayFsjbDCBK3zj-2" value="&lt;span style=&quot;font-size: 16px;&quot;&gt;Read&lt;/span&gt;" style="rounded=0;whiteSpace=wrap;html=1;fillColor=none;" vertex="1" parent="1">
          <mxGeometry x="120" y="200" width="90" height="60" as="geometry" />
        </mxCell>
        <mxCell id="BOcxICgayFsjbDCBK3zj-3" value="&lt;span style=&quot;font-size: 16px;&quot;&gt;Split&lt;/span&gt;" style="rounded=0;whiteSpace=wrap;html=1;fillColor=none;" vertex="1" parent="1">
          <mxGeometry x="350" y="200" width="90" height="60" as="geometry" />
        </mxCell>
        <mxCell id="BOcxICgayFsjbDCBK3zj-4" value="&lt;span style=&quot;font-size: 16px;&quot;&gt;Verify&lt;/span&gt;" style="rounded=0;whiteSpace=wrap;html=1;fillColor=none;" vertex="1" parent="1">
          <mxGeometry x="580" y="200" width="90" height="60" as="geometry" />
        </mxCell>
        <mxCell id="BOcxICgayFsjbDCBK3zj-5" value="&lt;span style=&quot;font-size: 16px;&quot;&gt;Update&lt;/span&gt;&lt;div&gt;&lt;span style=&quot;font-size: 16px;&quot;&gt;Dictionary&lt;/span&gt;&lt;/div&gt;" style="rounded=0;whiteSpace=wrap;html=1;fillColor=none;" vertex="1" parent="1">
          <mxGeometry x="580" y="360" width="90" height="60" as="geometry" />
        </mxCell>
        <mxCell id="BOcxICgayFsjbDCBK3zj-6" value="&lt;span style=&quot;font-size: 16px;&quot;&gt;Notify&lt;/span&gt;" style="rounded=0;whiteSpace=wrap;html=1;fillColor=none;" vertex="1" parent="1">
          <mxGeometry x="410" y="360" width="90" height="60" as="geometry" />
        </mxCell>
        <mxCell id="BOcxICgayFsjbDCBK3zj-7" value="&lt;font style=&quot;font-size: 15px;&quot;&gt;Update&lt;/font&gt;&lt;div&gt;&lt;font style=&quot;font-size: 15px;&quot;&gt;Miss-Spelled&lt;/font&gt;&lt;/div&gt;" style="rounded=0;whiteSpace=wrap;html=1;fillColor=none;" vertex="1" parent="1">
          <mxGeometry x="730" y="360" width="100" height="60" as="geometry" />
        </mxCell>
        <mxCell id="BOcxICgayFsjbDCBK3zj-8" value="" style="endArrow=open;endSize=7;html=1;rounded=0;exitX=0;exitY=1;exitDx=0;exitDy=0;entryX=0.5;entryY=0;entryDx=0;entryDy=0;" edge="1" parent="1" source="BOcxICgayFsjbDCBK3zj-1" target="BOcxICgayFsjbDCBK3zj-2">
          <mxGeometry width="160" relative="1" as="geometry">
            <mxPoint x="330" y="100" as="sourcePoint" />
            <mxPoint x="85" y="200" as="targetPoint" />
          </mxGeometry>
        </mxCell>
        <mxCell id="BOcxICgayFsjbDCBK3zj-9" value="" style="endArrow=open;endSize=7;html=1;rounded=0;entryX=0.5;entryY=0;entryDx=0;entryDy=0;exitX=0.5;exitY=1;exitDx=0;exitDy=0;" edge="1" parent="1" source="BOcxICgayFsjbDCBK3zj-1" target="BOcxICgayFsjbDCBK3zj-3">
          <mxGeometry width="160" relative="1" as="geometry">
            <mxPoint x="390" y="150" as="sourcePoint" />
            <mxPoint x="95" y="210" as="targetPoint" />
          </mxGeometry>
        </mxCell>
        <mxCell id="BOcxICgayFsjbDCBK3zj-10" value="" style="endArrow=open;endSize=7;html=1;rounded=0;entryX=0;entryY=0;entryDx=0;entryDy=0;exitX=1;exitY=1;exitDx=0;exitDy=0;" edge="1" parent="1" source="BOcxICgayFsjbDCBK3zj-1" target="BOcxICgayFsjbDCBK3zj-4">
          <mxGeometry width="160" relative="1" as="geometry">
            <mxPoint x="405" y="150" as="sourcePoint" />
            <mxPoint x="405" y="210" as="targetPoint" />
          </mxGeometry>
        </mxCell>
        <mxCell id="BOcxICgayFsjbDCBK3zj-11" value="" style="endArrow=open;endSize=7;html=1;rounded=0;entryX=0.5;entryY=0;entryDx=0;entryDy=0;exitX=0.5;exitY=1;exitDx=0;exitDy=0;" edge="1" parent="1" source="BOcxICgayFsjbDCBK3zj-4" target="BOcxICgayFsjbDCBK3zj-5">
          <mxGeometry width="160" relative="1" as="geometry">
            <mxPoint x="618" y="260" as="sourcePoint" />
            <mxPoint x="590" y="210" as="targetPoint" />
          </mxGeometry>
        </mxCell>
        <mxCell id="BOcxICgayFsjbDCBK3zj-12" value="" style="endArrow=open;endSize=7;html=1;rounded=0;entryX=0;entryY=0;entryDx=0;entryDy=0;exitX=1;exitY=1;exitDx=0;exitDy=0;" edge="1" parent="1" source="BOcxICgayFsjbDCBK3zj-4" target="BOcxICgayFsjbDCBK3zj-7">
          <mxGeometry width="160" relative="1" as="geometry">
            <mxPoint x="635" y="270" as="sourcePoint" />
            <mxPoint x="635" y="370" as="targetPoint" />
          </mxGeometry>
        </mxCell>
        <mxCell id="BOcxICgayFsjbDCBK3zj-13" value="" style="endArrow=open;endSize=7;html=1;rounded=0;entryX=1;entryY=0;entryDx=0;entryDy=0;exitX=0;exitY=1;exitDx=0;exitDy=0;" edge="1" parent="1" source="BOcxICgayFsjbDCBK3zj-4" target="BOcxICgayFsjbDCBK3zj-6">
          <mxGeometry width="160" relative="1" as="geometry">
            <mxPoint x="645" y="280" as="sourcePoint" />
            <mxPoint x="645" y="380" as="targetPoint" />
          </mxGeometry>
        </mxCell>
        <mxCell id="BOcxICgayFsjbDCBK3zj-14" value="" style="html=1;verticalAlign=bottom;startArrow=oval;startFill=0;endArrow=open;startSize=11;endSize=7;curved=0;rounded=0;targetPerimeterSpacing=15;sourcePerimeterSpacing=19;jumpStyle=none;" edge="1" parent="1">
          <mxGeometry width="80" relative="1" as="geometry">
            <mxPoint x="180" y="170" as="sourcePoint" />
            <mxPoint x="250" y="130" as="targetPoint" />
          </mxGeometry>
        </mxCell>
        <mxCell id="BOcxICgayFsjbDCBK3zj-15" value="&lt;font style=&quot;font-size: 10px;&quot;&gt;DC,DCT,MSL&lt;/font&gt;" style="text;html=1;align=center;verticalAlign=middle;whiteSpace=wrap;rounded=0;" vertex="1" parent="1">
          <mxGeometry x="160" y="120" width="60" height="30" as="geometry" />
        </mxCell>
        <mxCell id="BOcxICgayFsjbDCBK3zj-16" value="" style="html=1;verticalAlign=bottom;startArrow=oval;startFill=0;endArrow=open;startSize=11;endSize=7;curved=0;rounded=0;targetPerimeterSpacing=15;sourcePerimeterSpacing=19;jumpStyle=none;" edge="1" parent="1">
          <mxGeometry width="80" relative="1" as="geometry">
            <mxPoint x="380" y="150" as="sourcePoint" />
            <mxPoint x="380" y="190" as="targetPoint" />
          </mxGeometry>
        </mxCell>
        <mxCell id="BOcxICgayFsjbDCBK3zj-17" value="" style="html=1;verticalAlign=bottom;startArrow=oval;startFill=0;endArrow=open;startSize=11;endSize=7;curved=0;rounded=0;targetPerimeterSpacing=15;sourcePerimeterSpacing=19;jumpStyle=none;" edge="1" parent="1">
          <mxGeometry width="80" relative="1" as="geometry">
            <mxPoint x="410" y="190" as="sourcePoint" />
            <mxPoint x="410" y="150" as="targetPoint" />
          </mxGeometry>
        </mxCell>
        <mxCell id="BOcxICgayFsjbDCBK3zj-18" value="DC" style="text;html=1;align=center;verticalAlign=middle;whiteSpace=wrap;rounded=0;" vertex="1" parent="1">
          <mxGeometry x="340" y="150" width="30" height="30" as="geometry" />
        </mxCell>
        <mxCell id="BOcxICgayFsjbDCBK3zj-19" value="WL" style="text;html=1;align=center;verticalAlign=middle;whiteSpace=wrap;rounded=0;" vertex="1" parent="1">
          <mxGeometry x="410" y="160" width="30" height="20" as="geometry" />
        </mxCell>
        <mxCell id="BOcxICgayFsjbDCBK3zj-20" value="" style="html=1;verticalAlign=bottom;startArrow=oval;startFill=0;endArrow=open;startSize=11;endSize=7;curved=0;rounded=0;targetPerimeterSpacing=15;sourcePerimeterSpacing=19;jumpStyle=none;" edge="1" parent="1">
          <mxGeometry width="80" relative="1" as="geometry">
            <mxPoint x="520" y="160" as="sourcePoint" />
            <mxPoint x="550" y="190" as="targetPoint" />
          </mxGeometry>
        </mxCell>
        <mxCell id="BOcxICgayFsjbDCBK3zj-23" value="" style="html=1;verticalAlign=bottom;startArrow=oval;startFill=0;endArrow=open;startSize=11;endSize=7;curved=0;rounded=0;targetPerimeterSpacing=15;sourcePerimeterSpacing=19;jumpStyle=none;" edge="1" parent="1">
          <mxGeometry width="80" relative="1" as="geometry">
            <mxPoint x="570" y="170" as="sourcePoint" />
            <mxPoint x="540" y="140" as="targetPoint" />
          </mxGeometry>
        </mxCell>
        <mxCell id="BOcxICgayFsjbDCBK3zj-24" value="WL" style="text;html=1;align=center;verticalAlign=middle;whiteSpace=wrap;rounded=0;" vertex="1" parent="1">
          <mxGeometry x="510" y="170" width="20" height="15" as="geometry" />
        </mxCell>
        <mxCell id="BOcxICgayFsjbDCBK3zj-26" value="&lt;font style=&quot;font-size: 9px;&quot;&gt;CWL,&lt;/font&gt;" style="text;html=1;align=center;verticalAlign=middle;whiteSpace=wrap;rounded=0;" vertex="1" parent="1">
          <mxGeometry x="560" y="140" width="20" height="12.5" as="geometry" />
        </mxCell>
        <mxCell id="BOcxICgayFsjbDCBK3zj-27" value="&lt;font size=&quot;1&quot;&gt;IWL&lt;/font&gt;&lt;span style=&quot;color: rgba(0, 0, 0, 0); font-family: monospace; font-size: 0px; text-align: start; text-wrap: nowrap;&quot;&gt;%3CmxGraphModel%3E%3Croot%3E%3CmxCell%20id%3D%220%22%2F%3E%3CmxCell%20id%3D%221%22%20parent%3D%220%22%2F%3E%3CmxCell%20id%3D%222%22%20value%3D%22%22%20style%3D%22html%3D1%3BverticalAlign%3Dbottom%3BstartArrow%3Doval%3BstartFill%3D0%3BendArrow%3Dopen%3BstartSize%3D11%3BendSize%3D7%3Bcurved%3D0%3Brounded%3D0%3BtargetPerimeterSpacing%3D15%3BsourcePerimeterSpacing%3D19%3BjumpStyle%3Dnone%3B%22%20edge%3D%221%22%20parent%3D%221%22%3E%3CmxGeometry%20width%3D%2280%22%20relative%3D%221%22%20as%3D%22geometry%22%3E%3CmxPoint%20x%3D%22610%22%20y%3D%22140%22%20as%3D%22sourcePoint%22%2F%3E%3CmxPoint%20x%3D%22660%22%20y%3D%22170%22%20as%3D%22targetPoint%22%2F%3E%3C%2FmxGeometry%3E%3C%2FmxCell%3E%3C%2Froot%3E%3C%2FmxGraphModel%3E&lt;/span&gt;&lt;span style=&quot;color: rgba(0, 0, 0, 0); font-family: monospace; font-size: 0px; text-align: start; text-wrap: nowrap;&quot;&gt;%3CmxGraphModel%3E%3Croot%3E%3CmxCell%20id%3D%220%22%2F%3E%3CmxCell%20id%3D%221%22%20parent%3D%220%22%2F%3E%3CmxCell%20id%3D%222%22%20value%3D%22%22%20style%3D%22html%3D1%3BverticalAlign%3Dbottom%3BstartArrow%3Doval%3BstartFill%3D0%3BendArrow%3Dopen%3BstartSize%3D11%3BendSize%3D7%3Bcurved%3D0%3Brounded%3D0%3BtargetPerimeterSpacing%3D15%3BsourcePerimeterSpacing%3D19%3BjumpStyle%3Dnone%3B%22%20edge%3D%221%22%20parent%3D%221%22%3E%3CmxGeometry%20width%3D%2280%22%20relative%3D%221%22%20as%3D%22geometry%22%3E%3CmxPoint%20x%3D%22610%22%20y%3D%22140%22%20as%3D%22sourcePoint%22%2F%3E%3CmxPoint%20x%3D%22660%22%20y%3D%22170%22%20as%3D%22targetPoint%22%2F%3E%3C%2FmxGeometry%3E%3C%2FmxCell%3E%3C%2Froot%3E%3C%2FmxGraphModel%3&lt;/span&gt;" style="text;html=1;align=center;verticalAlign=middle;whiteSpace=wrap;rounded=0;" vertex="1" parent="1">
          <mxGeometry x="560" y="150" width="20" height="12.5" as="geometry" />
        </mxCell>
        <mxCell id="BOcxICgayFsjbDCBK3zj-28" value="" style="html=1;verticalAlign=bottom;startArrow=oval;startFill=0;endArrow=open;startSize=11;endSize=7;curved=0;rounded=0;targetPerimeterSpacing=15;sourcePerimeterSpacing=19;jumpStyle=none;" edge="1" parent="1">
          <mxGeometry width="80" relative="1" as="geometry">
            <mxPoint x="560" y="270" as="sourcePoint" />
            <mxPoint x="510" y="330" as="targetPoint" />
          </mxGeometry>
        </mxCell>
        <mxCell id="BOcxICgayFsjbDCBK3zj-29" value="" style="html=1;verticalAlign=bottom;startArrow=oval;startFill=0;endArrow=open;startSize=11;endSize=7;curved=0;rounded=0;targetPerimeterSpacing=15;sourcePerimeterSpacing=19;jumpStyle=none;" edge="1" parent="1">
          <mxGeometry width="80" relative="1" as="geometry">
            <mxPoint x="530" y="340" as="sourcePoint" />
            <mxPoint x="580" y="280" as="targetPoint" />
          </mxGeometry>
        </mxCell>
        <mxCell id="BOcxICgayFsjbDCBK3zj-30" value="" style="html=1;verticalAlign=bottom;startArrow=oval;startFill=0;endArrow=open;startSize=11;endSize=7;curved=0;rounded=0;targetPerimeterSpacing=15;sourcePerimeterSpacing=19;jumpStyle=none;" edge="1" parent="1">
          <mxGeometry width="80" relative="1" as="geometry">
            <mxPoint x="610" y="340" as="sourcePoint" />
            <mxPoint x="610" y="280" as="targetPoint" />
          </mxGeometry>
        </mxCell>
        <mxCell id="BOcxICgayFsjbDCBK3zj-31" value="" style="html=1;verticalAlign=bottom;startArrow=oval;startFill=0;endArrow=open;startSize=11;endSize=7;curved=0;rounded=0;targetPerimeterSpacing=15;sourcePerimeterSpacing=19;jumpStyle=none;" edge="1" parent="1">
          <mxGeometry width="80" relative="1" as="geometry">
            <mxPoint x="640" y="280" as="sourcePoint" />
            <mxPoint x="640" y="340" as="targetPoint" />
          </mxGeometry>
        </mxCell>
        <mxCell id="BOcxICgayFsjbDCBK3zj-32" value="" style="html=1;verticalAlign=bottom;startArrow=oval;startFill=0;endArrow=open;startSize=11;endSize=7;curved=0;rounded=0;targetPerimeterSpacing=15;sourcePerimeterSpacing=19;jumpStyle=none;" edge="1" parent="1">
          <mxGeometry width="80" relative="1" as="geometry">
            <mxPoint x="680" y="300" as="sourcePoint" />
            <mxPoint x="710" y="350" as="targetPoint" />
          </mxGeometry>
        </mxCell>
        <mxCell id="BOcxICgayFsjbDCBK3zj-33" value="" style="html=1;verticalAlign=bottom;startArrow=oval;startFill=0;endArrow=open;startSize=11;endSize=7;curved=0;rounded=0;targetPerimeterSpacing=15;sourcePerimeterSpacing=19;jumpStyle=none;" edge="1" parent="1">
          <mxGeometry width="80" relative="1" as="geometry">
            <mxPoint x="730" y="340" as="sourcePoint" />
            <mxPoint x="700" y="290" as="targetPoint" />
          </mxGeometry>
        </mxCell>
        <mxCell id="BOcxICgayFsjbDCBK3zj-34" value="&lt;font size=&quot;1&quot;&gt;UD&lt;/font&gt;" style="text;html=1;align=left;verticalAlign=middle;whiteSpace=wrap;rounded=0;" vertex="1" parent="1">
          <mxGeometry x="551" y="316" width="20" height="7.5" as="geometry" />
        </mxCell>
        <mxCell id="BOcxICgayFsjbDCBK3zj-35" value="&lt;font size=&quot;1&quot;&gt;UD&lt;/font&gt;" style="text;html=1;align=left;verticalAlign=middle;whiteSpace=wrap;rounded=0;" vertex="1" parent="1">
          <mxGeometry x="640" y="305" width="20" height="7.5" as="geometry" />
        </mxCell>
        <mxCell id="BOcxICgayFsjbDCBK3zj-37" value="&lt;font size=&quot;1&quot;&gt;UD&lt;/font&gt;" style="text;html=1;align=left;verticalAlign=middle;whiteSpace=wrap;rounded=0;" vertex="1" parent="1">
          <mxGeometry x="678" y="327" width="20" height="7.5" as="geometry" />
        </mxCell>
        <mxCell id="BOcxICgayFsjbDCBK3zj-38" value="&lt;font size=&quot;1&quot;&gt;UDCT&lt;/font&gt;" style="text;html=1;align=left;verticalAlign=middle;whiteSpace=wrap;rounded=0;" vertex="1" parent="1">
          <mxGeometry x="580" y="305" width="30" height="7.5" as="geometry" />
        </mxCell>
        <mxCell id="BOcxICgayFsjbDCBK3zj-39" value="&lt;font size=&quot;1&quot;&gt;UMSL&lt;/font&gt;" style="text;html=1;align=left;verticalAlign=middle;whiteSpace=wrap;rounded=0;" vertex="1" parent="1">
          <mxGeometry x="714" y="306" width="30" height="7.5" as="geometry" />
        </mxCell>
        <mxCell id="BOcxICgayFsjbDCBK3zj-40" value="&lt;font style=&quot;font-size: 9px;&quot;&gt;IWL&lt;/font&gt;" style="text;html=1;align=left;verticalAlign=middle;whiteSpace=wrap;rounded=0;" vertex="1" parent="1">
          <mxGeometry x="515" y="290" width="20" height="7.5" as="geometry" />
        </mxCell>
      </root>
    </mxGraphModel>
  </diagram>
</mxfile>
